<svg xmlns="http://www.w3.org/2000/svg" xmlns:xlink="http://www.w3.org/1999/xlink" version="1.1" width="256" height="256" viewBox="0 0 256 256" xml:space="preserve">
<desc>Created with Fabric.js 1.7.22</desc>
<defs>
</defs>
<g transform="translate(128 128) scale(0.72 0.72)" style="">
	<g style="stroke: none; stroke-width: 0; stroke-dasharray: none; stroke-linecap: butt; stroke-linejoin: miter; stroke-miterlimit: 10; fill: none; fill-rule: nonzero; opacity: 1;" transform="translate(-175.05 -175.05000000000004) scale(3.89 3.89)" >
	<circle cx="45.005" cy="5.555" r="4.555" style="stroke: none; stroke-width: 1; stroke-dasharray: none; stroke-linecap: butt; stroke-linejoin: miter; stroke-miterlimit: 10; fill: rgb(249,228,105); fill-rule: nonzero; opacity: 1;" transform="  matrix(1 0 0 1 0 0) "/>
	<circle cx="45.005" cy="84.445" r="4.555" style="stroke: none; stroke-width: 1; stroke-dasharray: none; stroke-linecap: butt; stroke-linejoin: miter; stroke-miterlimit: 10; fill: rgb(249,228,105); fill-rule: nonzero; opacity: 1;" transform="  matrix(1 0 0 1 0 0) "/>
	<circle cx="5.555" cy="45.005" r="4.555" style="stroke: none; stroke-width: 1; stroke-dasharray: none; stroke-linecap: butt; stroke-linejoin: miter; stroke-miterlimit: 10; fill: rgb(249,228,105); fill-rule: nonzero; opacity: 1;" transform="  matrix(1 0 0 1 0 0) "/>
	<circle cx="84.445" cy="45.005" r="4.555" style="stroke: none; stroke-width: 1; stroke-dasharray: none; stroke-linecap: butt; stroke-linejoin: miter; stroke-miterlimit: 10; fill: rgb(249,228,105); fill-rule: nonzero; opacity: 1;" transform="  matrix(1 0 0 1 0 0) "/>
	<path d="M 46.332 70.341 c 8.976 -0.464 16.718 -5.593 20.85 -13.008 c 6.209 -16.426 1.515 -27.779 -11.38 -35.3 c -2.824 -1.33 -5.933 -2.155 -9.211 -2.358 c -11.888 0.619 -20.125 6.294 -25.287 16.229 c -1.085 2.824 -1.679 5.891 -1.679 9.097 c 0 11.387 7.5 21.021 17.829 24.234 C 40.419 69.867 43.378 70.246 46.332 70.341 z" style="stroke: none; stroke-width: 1; stroke-dasharray: none; stroke-linecap: butt; stroke-linejoin: miter; stroke-miterlimit: 10; fill: rgb(90,170,231); fill-rule: nonzero; opacity: 1;" transform=" matrix(1 0 0 1 0 0) " stroke-linecap="round" />
	<path d="M 43.311 27.061 c 1.833 -2.034 2.981 -4.662 3.279 -7.382 c -0.527 -0.033 -1.056 -0.055 -1.591 -0.055 c -10.808 0 -20.032 6.76 -23.689 16.28 c -0.092 2.398 -0.058 4.749 1.062 6.822 c 1.315 2.436 3.851 3.916 6.256 5.286 c 1.142 0.651 2.343 1.366 2.943 2.536 c 0.401 0.781 0.486 1.683 0.773 2.514 c 1.15 3.328 5.287 4.996 6.207 8.394 c 0.572 2.109 -0.261 4.306 -0.71 6.444 c -0.096 0.456 -0.168 0.917 -0.228 1.379 c 2.338 0.71 4.817 1.096 7.387 1.096 c 0.447 0 0.891 -0.012 1.332 -0.035 c 0.424 -0.743 0.732 -1.579 1.093 -2.359 c 0.709 -1.533 1.703 -2.933 2.915 -4.108 c 1.699 -1.648 3.817 -2.852 5.342 -4.663 c 0.91 -1.08 1.606 -2.487 1.331 -3.873 c -0.381 -1.92 -2.422 -3.022 -4.324 -3.486 c -1.902 -0.464 -3.968 -0.595 -5.571 -1.72 c -1.09 -0.765 -1.854 -2.497 -2.924 -3.289 c -3.639 -2.691 -10.489 0.229 -14.177 -2.394 c -0.465 -0.331 -0.89 -0.747 -1.111 -1.272 c -0.184 -0.437 -0.217 -0.923 -0.208 -1.397 c 0.045 -2.528 2.412 -5.012 4.378 -6.603 c 0.142 -0.115 0.291 -0.227 0.462 -0.289 c 0.608 -0.222 1.258 0.244 1.621 0.781 c 0.362 0.536 0.012 2.909 0.496 3.337 c 0.485 0.429 1.387 0.492 1.676 -0.087 c 0.134 -0.268 0.671 -2.316 0.643 -2.614 c -0.128 -1.36 0.055 -2.765 0.649 -3.995 C 39.646 30.185 41.732 28.813 43.311 27.061 z" style="stroke: none; stroke-width: 1; stroke-dasharray: none; stroke-linecap: butt; stroke-linejoin: miter; stroke-miterlimit: 10; fill: rgb(145,220,90); fill-rule: nonzero; opacity: 1;" transform=" matrix(1 0 0 1 0 0) " stroke-linecap="round" />
	<path d="M 70.375 45 c 0 -10.151 -5.963 -18.906 -14.575 -22.964 c 0.157 0.239 0.32 0.474 0.471 0.718 c 0.741 1.196 1.415 2.479 1.583 3.876 c 0.425 3.528 -2.42 6.744 -2.359 10.296 c 0.05 2.945 2.383 5.692 5.282 6.218 c 1.058 0.192 2.147 0.116 3.215 0.242 c 1.068 0.126 2.182 0.505 2.819 1.371 c 0.502 0.682 0.635 1.56 0.724 2.403 c 0.356 3.385 0.227 6.817 -0.357 10.17 C 69.212 53.679 70.375 49.476 70.375 45 z" style="stroke: none; stroke-width: 1; stroke-dasharray: none; stroke-linecap: butt; stroke-linejoin: miter; stroke-miterlimit: 10; fill: rgb(145,220,90); fill-rule: nonzero; opacity: 1;" transform=" matrix(1 0 0 1 0 0) " stroke-linecap="round" />
	<path d="M 45 71 c -14.336 0 -26 -11.663 -26 -26 c 0 -14.336 11.664 -26 26 -26 c 14.337 0 26 11.664 26 26 C 71 59.337 59.337 71 45 71 z M 45 21 c -13.233 0 -24 10.767 -24 24 s 10.767 24 24 24 s 24 -10.767 24 -24 S 58.233 21 45 21 z" style="stroke: none; stroke-width: 1; stroke-dasharray: none; stroke-linecap: butt; stroke-linejoin: miter; stroke-miterlimit: 10; fill: rgb(0,0,0); fill-rule: nonzero; opacity: 1;" transform=" matrix(1 0 0 1 0 0) " stroke-linecap="round" />
	<path d="M 45 71 c -2.569 0 -5.115 -0.378 -7.568 -1.122 c -0.468 -0.143 -0.765 -0.603 -0.701 -1.088 c 0.063 -0.48 0.138 -0.959 0.237 -1.434 c 0.096 -0.455 0.208 -0.913 0.322 -1.372 c 0.395 -1.604 0.769 -3.119 0.392 -4.51 c -0.396 -1.462 -1.575 -2.607 -2.824 -3.821 c -1.301 -1.264 -2.646 -2.57 -3.272 -4.384 c -0.12 -0.348 -0.208 -0.706 -0.296 -1.064 c -0.114 -0.472 -0.223 -0.917 -0.41 -1.282 c -0.442 -0.861 -1.396 -1.454 -2.505 -2.085 c -2.268 -1.293 -5.091 -2.901 -6.549 -5.602 c -1.243 -2.303 -1.257 -4.837 -1.165 -7.234 c 0.004 -0.109 0.026 -0.218 0.065 -0.32 C 24.561 25.704 34.315 19 45 19 c 0.547 0 1.09 0.022 1.629 0.056 c 0.272 0.017 0.527 0.145 0.703 0.354 c 0.177 0.209 0.259 0.481 0.229 0.753 c -0.32 2.915 -1.557 5.697 -3.482 7.833 l 0 0 c -0.54 0.6 -1.13 1.149 -1.701 1.681 c -1.113 1.038 -2.165 2.018 -2.761 3.254 c -0.474 0.982 -0.662 2.161 -0.544 3.407 c 0.056 0.586 -0.588 2.825 -0.735 3.118 c -0.241 0.482 -0.699 0.821 -1.255 0.929 c -0.667 0.127 -1.434 -0.083 -1.953 -0.542 c -0.583 -0.516 -0.605 -1.431 -0.631 -2.491 c -0.008 -0.341 -0.021 -0.844 -0.065 -1.043 c -0.168 -0.224 -0.358 -0.324 -0.414 -0.329 c 0.015 0.001 -0.03 0.03 -0.139 0.118 c -2.477 2.003 -3.914 4.097 -3.943 5.747 c -0.008 0.443 0.031 0.743 0.127 0.97 c 0.116 0.275 0.37 0.554 0.752 0.826 c 1.535 1.092 3.875 1.032 6.35 0.971 c 2.733 -0.067 5.554 -0.138 7.633 1.399 c 0.639 0.473 1.136 1.15 1.618 1.806 c 0.408 0.556 0.83 1.13 1.243 1.419 c 1.008 0.707 2.302 0.961 3.671 1.229 c 0.497 0.098 0.994 0.195 1.48 0.313 c 2.783 0.679 4.607 2.214 5.003 4.212 c 0.295 1.481 -0.247 3.135 -1.527 4.654 c -0.94 1.117 -2.072 2 -3.167 2.854 c -0.772 0.603 -1.502 1.172 -2.164 1.813 c -1.113 1.079 -2.009 2.341 -2.661 3.75 c -0.113 0.246 -0.222 0.498 -0.33 0.75 c -0.234 0.547 -0.478 1.111 -0.785 1.65 c -0.169 0.296 -0.477 0.485 -0.816 0.503 C 45.912 70.988 45.458 71 45 71 z M 38.843 68.2 c 2.231 0.591 4.554 0.856 6.853 0.79 c 0.149 -0.307 0.288 -0.631 0.432 -0.968 c 0.116 -0.27 0.231 -0.538 0.354 -0.801 c 0.756 -1.633 1.793 -3.095 3.083 -4.346 c 0.739 -0.717 1.546 -1.346 2.326 -1.955 c 1.061 -0.827 2.062 -1.608 2.868 -2.565 c 0.51 -0.605 1.33 -1.797 1.096 -2.976 c -0.349 -1.756 -2.779 -2.479 -3.517 -2.658 c -0.456 -0.111 -0.923 -0.202 -1.391 -0.294 c -1.514 -0.296 -3.079 -0.603 -4.435 -1.554 c -0.682 -0.478 -1.203 -1.188 -1.707 -1.873 c -0.394 -0.535 -0.8 -1.089 -1.195 -1.382 c -1.527 -1.13 -3.892 -1.069 -6.393 -1.008 c -2.696 0.069 -5.483 0.138 -7.56 -1.34 c -0.69 -0.491 -1.173 -1.056 -1.437 -1.68 c -0.268 -0.637 -0.292 -1.287 -0.284 -1.782 c 0.052 -2.916 2.576 -5.561 4.684 -7.265 c 0.205 -0.166 0.437 -0.336 0.739 -0.447 c 1.106 -0.401 2.188 0.287 2.77 1.149 c 0.313 0.463 0.343 1.083 0.367 2.058 c 0.008 0.325 0.02 0.835 0.065 1.098 c 0.012 0.004 0.024 0.008 0.036 0.011 c 0.146 -0.473 0.458 -1.709 0.48 -1.982 c -0.149 -1.513 0.104 -3.057 0.736 -4.368 c 0.759 -1.575 2 -2.73 3.199 -3.848 c 0.564 -0.526 1.097 -1.022 1.579 -1.557 c 1.413 -1.567 2.392 -3.544 2.815 -5.653 C 45.273 21.001 45.137 21 45 21 c -9.809 0 -18.767 6.12 -22.346 15.245 c -0.075 2.071 -0.045 4.23 0.933 6.041 c 1.186 2.197 3.626 3.587 5.779 4.814 c 1.074 0.611 2.545 1.449 3.294 2.911 c 0.295 0.575 0.437 1.158 0.574 1.722 c 0.072 0.298 0.144 0.596 0.243 0.885 c 0.471 1.363 1.59 2.45 2.775 3.603 c 1.387 1.348 2.821 2.741 3.36 4.731 c 0.512 1.89 0.058 3.731 -0.38 5.512 c -0.108 0.437 -0.215 0.871 -0.306 1.304 C 38.896 67.911 38.868 68.056 38.843 68.2 z M 36.593 38.523 L 36.593 38.523 L 36.593 38.523 z M 43.336 27.327 h 0.01 H 43.336 z" style="stroke: none; stroke-width: 1; stroke-dasharray: none; stroke-linecap: butt; stroke-linejoin: miter; stroke-miterlimit: 10; fill: rgb(0,0,0); fill-rule: nonzero; opacity: 1;" transform=" matrix(1 0 0 1 0 0) " stroke-linecap="round" />
	<path d="M 66.85 58.147 c -0.111 0 -0.224 -0.019 -0.334 -0.058 c -0.46 -0.163 -0.735 -0.634 -0.651 -1.114 c 0.566 -3.246 0.682 -6.524 0.343 -9.742 c -0.072 -0.688 -0.172 -1.401 -0.524 -1.88 c -0.47 -0.637 -1.396 -0.868 -2.089 -0.95 c -0.426 -0.05 -0.855 -0.065 -1.284 -0.081 c -0.629 -0.023 -1.28 -0.047 -1.945 -0.168 c -3.321 -0.603 -5.968 -3.718 -6.024 -7.093 c -0.031 -1.848 0.624 -3.543 1.258 -5.182 c 0.65 -1.683 1.265 -3.272 1.073 -4.859 c -0.147 -1.229 -0.799 -2.414 -1.417 -3.412 c -0.091 -0.147 -0.188 -0.291 -0.283 -0.435 l -0.167 -0.251 c -0.245 -0.375 -0.211 -0.866 0.082 -1.204 c 0.295 -0.338 0.779 -0.439 1.181 -0.249 C 65.139 25.745 71 34.981 71 45 c 0 4.418 -1.133 8.786 -3.276 12.634 C 67.542 57.959 67.204 58.147 66.85 58.147 z M 58.19 24.953 c 0.221 0.578 0.39 1.188 0.467 1.829 c 0.251 2.082 -0.484 3.981 -1.194 5.819 c -0.591 1.527 -1.148 2.97 -1.123 4.428 c 0.04 2.414 2.006 4.728 4.382 5.159 c 0.524 0.095 1.076 0.115 1.661 0.137 c 0.483 0.018 0.966 0.037 1.445 0.093 c 1.558 0.184 2.756 0.789 3.465 1.75 c 0.649 0.883 0.807 1.938 0.902 2.856 c 0.117 1.105 0.183 2.219 0.198 3.334 C 68.795 48.606 69 46.808 69 45 C 69 36.899 64.849 29.353 58.19 24.953 z" style="stroke: none; stroke-width: 1; stroke-dasharray: none; stroke-linecap: butt; stroke-linejoin: miter; stroke-miterlimit: 10; fill: rgb(0,0,0); fill-rule: nonzero; opacity: 1;" transform=" matrix(1 0 0 1 0 0) " stroke-linecap="round" />
	<path d="M 45 11.109 c -3.063 0 -5.555 -2.492 -5.555 -5.555 S 41.937 0 45 0 c 3.063 0 5.555 2.492 5.555 5.555 S 48.063 11.109 45 11.109 z M 45 2 c -1.96 0 -3.555 1.595 -3.555 3.555 S 43.04 9.109 45 9.109 s 3.555 -1.595 3.555 -3.555 S 46.96 2 45 2 z" style="stroke: none; stroke-width: 1; stroke-dasharray: none; stroke-linecap: butt; stroke-linejoin: miter; stroke-miterlimit: 10; fill: rgb(0,0,0); fill-rule: nonzero; opacity: 1;" transform=" matrix(1 0 0 1 0 0) " stroke-linecap="round" />
	<path d="M 45 90 c -3.063 0 -5.555 -2.492 -5.555 -5.555 s 2.492 -5.555 5.555 -5.555 c 3.063 0 5.555 2.492 5.555 5.555 S 48.063 90 45 90 z M 45 80.891 c -1.96 0 -3.555 1.595 -3.555 3.555 S 43.04 88 45 88 s 3.555 -1.595 3.555 -3.555 S 46.96 80.891 45 80.891 z" style="stroke: none; stroke-width: 1; stroke-dasharray: none; stroke-linecap: butt; stroke-linejoin: miter; stroke-miterlimit: 10; fill: rgb(0,0,0); fill-rule: nonzero; opacity: 1;" transform=" matrix(1 0 0 1 0 0) " stroke-linecap="round" />
	<path d="M 5.555 50.555 C 2.492 50.555 0 48.063 0 45 c 0 -3.063 2.492 -5.555 5.555 -5.555 s 5.555 2.492 5.555 5.555 C 11.109 48.063 8.618 50.555 5.555 50.555 z M 5.555 41.445 C 3.595 41.445 2 43.04 2 45 s 1.595 3.555 3.555 3.555 S 9.109 46.96 9.109 45 S 7.515 41.445 5.555 41.445 z" style="stroke: none; stroke-width: 1; stroke-dasharray: none; stroke-linecap: butt; stroke-linejoin: miter; stroke-miterlimit: 10; fill: rgb(0,0,0); fill-rule: nonzero; opacity: 1;" transform=" matrix(1 0 0 1 0 0) " stroke-linecap="round" />
	<path d="M 84.445 50.555 c -3.063 0 -5.555 -2.492 -5.555 -5.555 c 0 -3.063 2.492 -5.555 5.555 -5.555 S 90 41.937 90 45 C 90 48.063 87.508 50.555 84.445 50.555 z M 84.445 41.445 c -1.96 0 -3.555 1.595 -3.555 3.555 s 1.595 3.555 3.555 3.555 S 88 46.96 88 45 S 86.405 41.445 84.445 41.445 z" style="stroke: none; stroke-width: 1; stroke-dasharray: none; stroke-linecap: butt; stroke-linejoin: miter; stroke-miterlimit: 10; fill: rgb(0,0,0); fill-rule: nonzero; opacity: 1;" transform=" matrix(1 0 0 1 0 0) " stroke-linecap="round" />
	<path d="M 6.404 37.826 c -0.068 0 -0.138 -0.007 -0.207 -0.021 C 5.656 37.69 5.311 37.16 5.424 36.62 C 8.723 20.968 20.968 8.723 36.62 5.424 c 0.539 -0.114 1.071 0.231 1.185 0.772 c 0.114 0.54 -0.232 1.071 -0.772 1.185 c -14.877 3.135 -26.515 14.773 -29.65 29.65 C 7.282 37.503 6.867 37.826 6.404 37.826 z" style="stroke: none; stroke-width: 1; stroke-dasharray: none; stroke-linecap: butt; stroke-linejoin: miter; stroke-miterlimit: 10; fill: rgb(0,0,0); fill-rule: nonzero; opacity: 1;" transform=" matrix(1 0 0 1 0 0) " stroke-linecap="round" />
	<path d="M 83.592 37.827 c -0.463 0 -0.878 -0.323 -0.978 -0.794 C 79.479 22.155 67.842 10.517 52.969 7.381 c -0.541 -0.114 -0.887 -0.645 -0.772 -1.185 c 0.114 -0.541 0.646 -0.887 1.185 -0.772 c 15.648 3.298 27.892 15.543 31.19 31.196 c 0.114 0.54 -0.231 1.071 -0.772 1.185 C 83.729 37.82 83.66 37.827 83.592 37.827 z" style="stroke: none; stroke-width: 1; stroke-dasharray: none; stroke-linecap: butt; stroke-linejoin: miter; stroke-miterlimit: 10; fill: rgb(0,0,0); fill-rule: nonzero; opacity: 1;" transform=" matrix(1 0 0 1 0 0) " stroke-linecap="round" />
	<path d="M 53.173 84.593 c -0.463 0 -0.878 -0.323 -0.978 -0.794 c -0.114 -0.54 0.231 -1.07 0.772 -1.185 c 14.872 -3.135 26.508 -14.772 29.644 -29.647 c 0.114 -0.54 0.645 -0.888 1.185 -0.772 c 0.541 0.114 0.887 0.645 0.772 1.185 C 81.27 69.029 69.027 81.273 53.38 84.571 C 53.311 84.586 53.241 84.593 53.173 84.593 z" style="stroke: none; stroke-width: 1; stroke-dasharray: none; stroke-linecap: butt; stroke-linejoin: miter; stroke-miterlimit: 10; fill: rgb(0,0,0); fill-rule: nonzero; opacity: 1;" transform=" matrix(1 0 0 1 0 0) " stroke-linecap="round" />
	<path d="M 36.828 84.593 c -0.068 0 -0.138 -0.007 -0.207 -0.021 C 20.987 81.276 8.746 69.051 5.434 53.425 c -0.115 -0.54 0.23 -1.07 0.771 -1.186 c 0.539 -0.114 1.071 0.23 1.186 0.771 c 3.148 14.852 14.784 26.472 29.643 29.604 c 0.541 0.114 0.886 0.645 0.772 1.185 C 37.706 84.27 37.291 84.593 36.828 84.593 z" style="stroke: none; stroke-width: 1; stroke-dasharray: none; stroke-linecap: butt; stroke-linejoin: miter; stroke-miterlimit: 10; fill: rgb(0,0,0); fill-rule: nonzero; opacity: 1;" transform=" matrix(1 0 0 1 0 0) " stroke-linecap="round" />
</g>
</g>
</svg>