<svg xmlns="http://www.w3.org/2000/svg" xmlns:xlink="http://www.w3.org/1999/xlink" version="1.1" width="256" height="256" viewBox="0 0 256 256" xml:space="preserve">
<desc>Created with Fabric.js 1.7.22</desc>
<defs>
</defs>
<g transform="translate(128 128) scale(0.72 0.72)" style="">
	<g style="stroke: none; stroke-width: 0; stroke-dasharray: none; stroke-linecap: butt; stroke-linejoin: miter; stroke-miterlimit: 10; fill: none; fill-rule: nonzero; opacity: 1;" transform="translate(-175.05 -175.05000000000004) scale(3.89 3.89)" >
	<path d="M 22.5 11.145 L 45 18.864 c 5.187 18.978 4.704 39.069 0 59.991 l -22.5 -7.719 C 17.733 52.517 18.315 32.352 22.5 11.145 z" style="stroke: none; stroke-width: 1; stroke-dasharray: none; stroke-linecap: butt; stroke-linejoin: miter; stroke-miterlimit: 10; fill: rgb(93,201,131); fill-rule: nonzero; opacity: 1;" transform=" matrix(1 0 0 1 0 0) " stroke-linecap="round" />
	<path d="M 67.5 11.145 L 90 18.864 v 59.991 l -22.5 -7.719 C 62.559 52.989 63.343 32.699 67.5 11.145 z" style="stroke: none; stroke-width: 1; stroke-dasharray: none; stroke-linecap: butt; stroke-linejoin: miter; stroke-miterlimit: 10; fill: rgb(93,201,131); fill-rule: nonzero; opacity: 1;" transform=" matrix(1 0 0 1 0 0) " stroke-linecap="round" />
	<polygon points="22.5,11.14 0,18.86 0,78.86 22.5,71.14 " style="stroke: none; stroke-width: 1; stroke-dasharray: none; stroke-linecap: butt; stroke-linejoin: miter; stroke-miterlimit: 10; fill: rgb(14,171,97); fill-rule: nonzero; opacity: 1;" transform="  matrix(1 0 0 1 0 0) "/>
	<polygon points="67.5,11.14 45,18.86 45,78.86 67.5,71.14 " style="stroke: none; stroke-width: 1; stroke-dasharray: none; stroke-linecap: butt; stroke-linejoin: miter; stroke-miterlimit: 10; fill: rgb(14,171,97); fill-rule: nonzero; opacity: 1;" transform="  matrix(1 0 0 1 0 0) "/>
	<path d="M 22.5 60.848 c 4.602 -5.63 9.205 -12.883 9.205 -17.966 s -4.121 -9.205 -9.205 -9.205 s -9.205 4.121 -9.205 9.205 S 17.898 55.218 22.5 60.848 z" style="stroke: none; stroke-width: 1; stroke-dasharray: none; stroke-linecap: butt; stroke-linejoin: miter; stroke-miterlimit: 10; fill: rgb(238,54,22); fill-rule: nonzero; opacity: 1;" transform=" matrix(1 0 0 1 0 0) " stroke-linecap="round" />
	<circle cx="22.5" cy="43.199999999999996" r="3.47" style="stroke: none; stroke-width: 1; stroke-dasharray: none; stroke-linecap: butt; stroke-linejoin: miter; stroke-miterlimit: 10; fill: rgb(255,255,255); fill-rule: nonzero; opacity: 1;" transform="  matrix(1 0 0 1 0 0) "/>
	<polygon points="75.17,28.97 70.29,24.09 67.5,26.88 64.71,24.09 59.83,28.97 62.62,31.76 59.83,34.55 64.71,39.43 67.5,36.64 70.29,39.43 75.17,34.55 72.38,31.76 " style="stroke: none; stroke-width: 1; stroke-dasharray: none; stroke-linecap: butt; stroke-linejoin: miter; stroke-miterlimit: 10; fill: rgb(255,195,26); fill-rule: nonzero; opacity: 1;" transform="  matrix(1 0 0 1 0 0) "/>
	<path d="M 46.527 68.512 c -0.413 0 -0.799 -0.258 -0.944 -0.669 c -0.183 -0.521 0.092 -1.092 0.613 -1.274 l 1.888 -0.662 c 0.522 -0.185 1.092 0.093 1.274 0.612 c 0.183 0.521 -0.091 1.092 -0.612 1.274 l -1.888 0.662 C 46.749 68.494 46.637 68.512 46.527 68.512 z M 42.748 68.276 c -0.107 0 -0.217 -0.018 -0.324 -0.054 l -1.892 -0.648 c -0.522 -0.18 -0.801 -0.748 -0.622 -1.271 c 0.179 -0.522 0.746 -0.798 1.27 -0.622 l 1.892 0.648 c 0.522 0.18 0.801 0.748 0.622 1.271 C 43.551 68.016 43.163 68.276 42.748 68.276 z M 52.189 66.526 c -0.413 0 -0.799 -0.257 -0.943 -0.669 c -0.183 -0.521 0.091 -1.092 0.612 -1.274 l 1.887 -0.662 c 0.524 -0.187 1.092 0.091 1.274 0.612 c 0.184 0.521 -0.091 1.092 -0.612 1.274 l -1.887 0.662 C 52.411 66.509 52.299 66.526 52.189 66.526 z M 37.071 66.332 c -0.107 0 -0.217 -0.018 -0.324 -0.054 l -1.892 -0.648 c -0.522 -0.18 -0.801 -0.748 -0.622 -1.271 c 0.179 -0.522 0.746 -0.799 1.27 -0.622 l 1.892 0.648 c 0.522 0.18 0.801 0.748 0.622 1.271 C 37.875 66.071 37.487 66.332 37.071 66.332 z M 31.395 64.388 c -0.107 0 -0.217 -0.018 -0.324 -0.054 l -1.892 -0.648 c -0.522 -0.18 -0.801 -0.748 -0.622 -1.271 c 0.179 -0.522 0.746 -0.799 1.27 -0.622 l 1.892 0.648 c 0.522 0.18 0.801 0.748 0.622 1.271 C 32.199 64.127 31.811 64.388 31.395 64.388 z M 57.654 64.148 c -0.277 0 -0.553 -0.115 -0.751 -0.34 c -0.364 -0.414 -0.324 -1.046 0.091 -1.411 c 0.42 -0.369 0.772 -0.802 1.048 -1.287 c 0.271 -0.48 0.881 -0.649 1.363 -0.375 c 0.48 0.272 0.648 0.883 0.375 1.363 c -0.386 0.679 -0.879 1.284 -1.466 1.801 C 58.125 64.066 57.89 64.148 57.654 64.148 z M 59.69 58.74 c -0.553 0 -1 -0.447 -1 -1 v -0.451 c 0 -0.436 -0.055 -0.865 -0.163 -1.278 c -0.14 -0.534 0.181 -1.081 0.715 -1.221 c 0.533 -0.135 1.08 0.181 1.221 0.715 c 0.151 0.578 0.228 1.179 0.228 1.784 v 0.451 C 60.69 58.293 60.243 58.74 59.69 58.74 z M 45 54.832 c -0.106 0 -0.212 -0.017 -0.313 -0.051 l -0.993 -0.328 c -0.524 -0.173 -0.809 -0.738 -0.636 -1.263 c 0.173 -0.525 0.739 -0.813 1.263 -0.636 l 0.682 0.225 l 0.595 -0.193 c 0.526 -0.173 1.09 0.115 1.261 0.64 c 0.171 0.525 -0.115 1.09 -0.641 1.261 l -0.907 0.296 C 45.209 54.815 45.104 54.832 45 54.832 z M 57.301 53.503 c -0.209 0 -0.42 -0.065 -0.6 -0.201 c -0.447 -0.336 -0.943 -0.594 -1.475 -0.766 c -0.525 -0.17 -0.813 -0.734 -0.643 -1.26 c 0.17 -0.524 0.732 -0.813 1.26 -0.643 c 0.742 0.24 1.435 0.601 2.059 1.07 c 0.441 0.331 0.53 0.958 0.198 1.399 C 57.904 53.365 57.604 53.503 57.301 53.503 z M 49.709 53.295 c -0.421 0 -0.813 -0.268 -0.95 -0.689 c -0.172 -0.525 0.114 -1.09 0.64 -1.261 l 1.901 -0.621 c 0.529 -0.174 1.09 0.115 1.261 0.64 c 0.172 0.525 -0.114 1.09 -0.64 1.261 l -1.901 0.621 C 49.916 53.279 49.812 53.295 49.709 53.295 z M 40.277 53.086 c -0.182 0 -0.366 -0.05 -0.531 -0.153 c -0.662 -0.416 -1.245 -0.937 -1.733 -1.547 c -0.345 -0.432 -0.275 -1.061 0.156 -1.406 c 0.43 -0.345 1.061 -0.275 1.405 0.156 c 0.349 0.436 0.765 0.807 1.236 1.104 c 0.467 0.294 0.608 0.911 0.314 1.379 C 40.935 52.92 40.609 53.086 40.277 53.086 z M 37.479 48.041 c -0.552 0 -1 -0.426 -1 -0.979 v -1.385 c 0 -0.242 0.012 -0.481 0.036 -0.716 c 0.056 -0.55 0.545 -0.96 1.096 -0.894 c 0.549 0.056 0.95 0.546 0.894 1.096 c -0.017 0.168 -0.025 0.34 -0.025 0.514 v 1.341 C 38.479 47.571 38.031 48.041 37.479 48.041 z M 39.169 42.508 c -0.251 0 -0.503 -0.094 -0.698 -0.283 c -0.396 -0.385 -0.404 -1.019 -0.019 -1.415 c 0.545 -0.559 1.174 -1.021 1.87 -1.374 c 0.493 -0.25 1.094 -0.051 1.344 0.441 c 0.249 0.493 0.052 1.094 -0.441 1.344 c -0.499 0.252 -0.949 0.583 -1.339 0.984 C 39.689 42.407 39.429 42.508 39.169 42.508 z M 45 40.89 c -0.086 0 -0.172 -0.011 -0.256 -0.033 c -0.094 -0.025 -0.187 -0.047 -0.281 -0.066 c -0.541 -0.111 -0.89 -0.639 -0.78 -1.18 c 0.111 -0.542 0.638 -0.893 1.18 -0.78 c 0.031 0.006 0.061 0.013 0.092 0.02 l 1.296 -0.433 c 0.524 -0.174 1.091 0.107 1.266 0.631 c 0.175 0.523 -0.107 1.09 -0.631 1.265 l -1.569 0.524 C 45.214 40.873 45.107 40.89 45 40.89 z M 50.361 39.098 c -0.419 0 -0.809 -0.265 -0.948 -0.684 c -0.175 -0.524 0.107 -1.09 0.632 -1.265 l 1.897 -0.634 c 0.522 -0.177 1.09 0.108 1.265 0.631 c 0.175 0.524 -0.107 1.09 -0.632 1.265 l -1.897 0.634 C 50.573 39.081 50.466 39.098 50.361 39.098 z" style="stroke: none; stroke-width: 1; stroke-dasharray: none; stroke-linecap: butt; stroke-linejoin: miter; stroke-miterlimit: 10; fill: rgb(255,255,255); fill-rule: nonzero; opacity: 1;" transform=" matrix(1 0 0 1 0 0) " stroke-linecap="round" />
</g>
</g>
</svg>